<?xml version="1.0" encoding="utf-8"?>
<!-- Generator: Adobe Illustrator 21.0.0, SVG Export Plug-In . SVG Version: 6.00 Build 0)  -->
<svg version="1.1" id="Layer_1" xmlns="http://www.w3.org/2000/svg" xmlns:xlink="http://www.w3.org/1999/xlink" x="0px" y="0px"
	 viewBox="0 0 500 500" style="enable-background:new 0 0 500 500;" xml:space="preserve">
<style type="text/css">
	.st0{fill:#21242D;}
</style>
<path id="Facebook_1_" class="st0" d="M500,472.4c0,15.2-12.4,27.6-27.6,27.6H345V306.4h65l9.7-75.5H345v-48.2
	c0-21.8,6.1-36.7,37.4-36.7l40,0V78.5c-6.9-0.9-30.6-3-58.2-3c-57.6,0-97.1,35.2-97.1,99.7v55.7h-65.2v75.5h65.2V500H27.6
	C12.4,500,0,487.6,0,472.4V27.6C0,12.4,12.4,0,27.6,0h444.8C487.6,0,500,12.4,500,27.6V472.4z"/>
</svg>
