<?xml version="1.0" encoding="utf-8"?>
<!-- Generator: Adobe Illustrator 21.0.0, SVG Export Plug-In . SVG Version: 6.00 Build 0)  -->
<svg version="1.1" id="Layer_1" xmlns="http://www.w3.org/2000/svg" xmlns:xlink="http://www.w3.org/1999/xlink" x="0px" y="0px"
	 viewBox="0 0 500 500" style="enable-background:new 0 0 500 500;" xml:space="preserve">
<style type="text/css">
	.st0{fill:#21242D;}
</style>
<g>
	<path class="st0" d="M159.2,218.6v62.7c0,0,60.8-0.1,85.5-0.1c-13.4,40.7-34.2,62.8-85.5,62.8c-51.9,0-92.4-42.1-92.4-94.1
		s40.5-94.1,92.4-94.1c27.4,0,45.1,9.7,61.4,23.1c13-13,11.9-14.9,45-46.2c-28.1-25.6-65.4-41.2-106.4-41.2
		C71.9,91.6,1.1,162.5,1.1,250c0,87.5,70.8,158.4,158.1,158.4c130.5,0,162.4-113.9,151.9-189.8H159.2z"/>
	<polygon class="st0" points="444.1,221.8 444.1,166.9 405,166.9 405,221.8 348.6,221.8 348.6,261 405,261 405,317.4 444.1,317.4 
		444.1,261 498.9,261 498.9,221.8 	"/>
</g>
</svg>
