<?xml version="1.0" encoding="utf-8"?>
<!-- Generator: Adobe Illustrator 21.0.0, SVG Export Plug-In . SVG Version: 6.00 Build 0)  -->
<svg version="1.1" id="Layer_1" xmlns="http://www.w3.org/2000/svg" xmlns:xlink="http://www.w3.org/1999/xlink" x="0px" y="0px"
	 viewBox="0 0 500 500" style="enable-background:new 0 0 500 500;" xml:space="preserve">
<style type="text/css">
	.st0{fill:#242424;}
</style>
<path class="st0" d="M500.6,250c0,138.1-111.9,250-250,250c-138.1,0-250-111.9-250-250c0-138.1,111.9-250,250-250
	C388.6,0,500.6,111.9,500.6,250z M120.7,237.7c1.2-35,7.2-68.5,17.4-99.5l-83.5-0.1c-16.9,29.6-27.4,63.5-29.3,99.6H120.7z
	 M238.4,138.2h-74.4c-11.1,31.1-17.6,64.5-18.8,99.6h93.3V138.2z M238.4,24.7c-26.3,23.5-48.5,53.8-64.5,88.9h64.5V24.7z
	 M70.7,113.5h76.6c12.9-30.8,30.6-59.3,51-83C145.6,42.4,100.6,74.2,70.7,113.5z M475.9,237.7c-1.9-36.1-12.4-69.9-29.3-99.6
	l-83.5,0.1c10.2,31,16.2,64.5,17.4,99.5H475.9z M262.8,237.7h93.3c-1.2-35.1-7.8-68.5-18.8-99.6h-74.4V237.7z M262.8,113.5h64.5
	c-16-35-38.2-65.4-64.5-88.9V113.5z M302.8,30.6c20.4,23.6,38.1,52.2,51,83h76.6C400.6,74.2,355.5,42.4,302.8,30.6z M25.3,262.3
	c1.9,36.1,12.3,69.9,29.3,99.6l83.5-0.1c-10.2-31-16.2-64.5-17.4-99.5H25.3z M238.4,262.3h-93.3c1.2,35.1,7.8,68.5,18.8,99.6h74.4
	V262.3z M238.4,386.5h-64.5c16,35,38.2,65.4,64.5,88.9V386.5z M198.3,469.4c-20.4-23.6-38.1-52.2-51-83H70.7
	C100.6,425.8,145.6,457.6,198.3,469.4z M380.4,262.3c-1.2,35-7.2,68.5-17.4,99.5l83.5,0.1c16.9-29.6,27.4-63.5,29.3-99.6H380.4z
	 M262.8,361.8h74.4c11.1-31.1,17.6-64.5,18.8-99.6h-93.3V361.8z M262.8,475.3c26.3-23.5,48.5-53.8,64.5-88.9h-64.5V475.3z
	 M430.4,386.5h-76.6c-12.9,30.8-30.6,59.3-51,83C355.5,457.6,400.6,425.8,430.4,386.5z"/>
</svg>
