<?xml version="1.0" encoding="utf-8"?>
<!-- Generator: Adobe Illustrator 21.0.0, SVG Export Plug-In . SVG Version: 6.00 Build 0)  -->
<svg version="1.1" id="Layer_1" xmlns="http://www.w3.org/2000/svg" xmlns:xlink="http://www.w3.org/1999/xlink" x="0px" y="0px"
	 viewBox="0 0 500 500" style="enable-background:new 0 0 500 500;" xml:space="preserve">
<style type="text/css">
	.st0{fill:#21242D;}
</style>
<path id="Instagram_1_" class="st0" d="M440.7,0.9H60.2C27.4,0.9,0.9,27.4,0.9,60.1v380.7c0,32.7,26.6,59.2,59.3,59.2h380.5
	c32.8,0,59.3-26.5,59.3-59.2V60.1C500,27.4,473.4,0.9,440.7,0.9z M359.6,78.9c0-8.6,7-15.6,15.6-15.6H422c8.6,0,15.6,7,15.6,15.6
	v46.8c0,8.6-7,15.6-15.6,15.6h-46.8c-8.6,0-15.6-7-15.6-15.6V78.9z M251,155.3c53,0,96,42.9,96,95.8c0,52.9-43,95.8-96,95.8
	c-53,0-96-42.9-96-95.8C155,198.1,198,155.3,251,155.3z M453.2,437.6c0,8.6-7,15.6-15.6,15.6H63.3c-8.6,0-15.6-7-15.6-15.6v-234H110
	c-8.1,11.7-10.9,33.5-10.9,47.4c0,83.5,68.1,151.5,151.8,151.5c83.7,0,151.8-68,151.8-151.5c0-13.9-2-35.3-12-47.4h62.4V437.6z"/>
</svg>
