<?xml version="1.0" encoding="utf-8"?>
<!-- Generator: Adobe Illustrator 21.0.0, SVG Export Plug-In . SVG Version: 6.00 Build 0)  -->
<svg version="1.1" id="Layer_1" xmlns="http://www.w3.org/2000/svg" xmlns:xlink="http://www.w3.org/1999/xlink" x="0px" y="0px"
	 viewBox="0 0 500 500" style="enable-background:new 0 0 500 500;" xml:space="preserve">
<style type="text/css">
	.st0{filter:url(#Adobe_OpacityMaskFilter);}
	.st1{fill:#FEFEFE;}
	.st2{mask:url(#SVGID_1_);}
	.st3{fill:#21242D;}
</style>
<defs>
	<filter id="Adobe_OpacityMaskFilter" filterUnits="userSpaceOnUse" x="0" y="0" width="500" height="500">
		
			<feColorMatrix  type="matrix" values="-1 0 0 0 1  0 -1 0 0 1  0 0 -1 0 1  0 0 0 1 0" color-interpolation-filters="sRGB" result="source"/>
		<feFlood  style="flood-color:white;flood-opacity:1" result="back"/>
		<feBlend  in="source" in2="back" mode="normal"/>
	</filter>
</defs>
<mask maskUnits="userSpaceOnUse" x="0" y="0" width="500" height="500" id="SVGID_1_">
	<g class="st0">
		<g>
			<g>
				<path class="st1" d="M385.7,283.6c0.1-5.3-2.2-6.7-7-6.6c-11.4,0.2-22.8,0.1-34.2,0.1c-24.9,0-23.5,2.1-23.5-23.4
					c0-7.8,0.4-15.6-0.4-23.3c-1.8-19.2-16.6-32.3-34.4-31.2c-18.4,1.1-31.3,15-31.4,34.2c-0.2,27.8,0,55.5-0.1,83.3
					c0,2.8,0,5.6-0.6,8.3c-0.9,3.6-3.5,5.6-7.3,5.5c-3.7,0-6.5-1.8-7.3-5.6c-0.6-2.7-0.7-5.5-0.7-8.2c-0.1-21.1,0-42.2,0-63.3
					c-0.1,0-0.2,0-0.3,0c0-22.8,0.5-45.6-0.2-68.3c-0.5-16.3-13.1-28.9-28.8-30.3c-20-1.9-36.1,11.7-36.5,32
					c-0.6,25.5-0.2,51.1-0.2,76.6c0,11.8-1.9,13.6-13.3,13.7c-11.1,0-22.2,0-33.3,0c-19,0-18.8,0-18.2,19.3c0.1,4.9,1.8,6.1,6.4,6.1
					c15.5-0.2,31.1,0,46.7-0.1c23.9-0.2,37-13.3,37.1-37.3c0.1-23.9,0-47.8,0-71.6c0-2.2-0.1-4.5,0.2-6.7c0.6-4.5,3.3-7,7.8-6.9
					c4.2,0.1,6.7,2.4,7.3,6.6c0.3,2.5,0.2,5,0.2,7.5c0,41.4,0,82.8,0,124.1c0,8.8,1.3,17.2,6.7,24.4c8.3,11.3,22.9,16.1,36.3,12.1
					c13.7-4.1,23.2-16.7,23.4-32c0.2-29.2,0.1-58.3,0.1-87.5c0-5.6,1.2-10.4,7.9-10.4c6.7-0.1,7.9,5,7.9,10.4
					c0,10.8-0.3,21.7,0.1,32.5c0.8,21.8,13.6,34.3,35.3,34.7c12.2,0.2,24.4,0.3,36.7,0C388.8,301.8,385.2,306.7,385.7,283.6z"/>
			</g>
		</g>
	</g>
</mask>
<g class="st2">
	<g>
		<path class="st3" d="M249.8,0C111.9,0.1-0.1,112.2,0,250.2c0.1,138,112.2,249.9,250.2,249.8c138-0.1,249.9-112.2,249.8-250.2
			C499.9,111.9,387.8-0.1,249.8,0z"/>
	</g>
</g>
</svg>
