<?xml version="1.0" encoding="utf-8"?>
<!-- Generator: Adobe Illustrator 21.0.0, SVG Export Plug-In . SVG Version: 6.00 Build 0)  -->
<svg version="1.1" id="Layer_1" xmlns="http://www.w3.org/2000/svg" xmlns:xlink="http://www.w3.org/1999/xlink" x="0px" y="0px"
	 viewBox="0 0 500 500" style="enable-background:new 0 0 500 500;" xml:space="preserve">
<style type="text/css">
	.st0{fill:#21242D;}
</style>
<path id="Pinterest_1_" class="st0" d="M250.4,4C114.3,4,4,114.3,4,250.4C4,351.3,64.6,438,151.5,476.1c-0.7-17.2-0.1-37.9,4.3-56.6
	c4.8-20,31.7-134.2,31.7-134.2s-7.9-15.7-7.9-39c0-36.5,21.2-63.8,47.5-63.8c22.4,0,33.2,16.8,33.2,37c0,22.5-14.4,56.2-21.8,87.4
	c-6.2,26.2,13.1,47.5,38.9,47.5c46.7,0,78.1-60,78.1-131c0-54-36.4-94.4-102.5-94.4c-74.7,0-121.3,55.7-121.3,118
	c0,21.5,6.3,36.6,16.2,48.3c4.6,5.4,5.2,7.6,3.5,13.8c-1.2,4.5-3.9,15.4-5,19.8c-1.7,6.2-6.7,8.5-12.3,6.2
	c-34.5-14.1-50.5-51.8-50.5-94.1c0-70,59-153.9,176.1-153.9c94.1,0,156,68.1,156,141.2c0,96.7-53.7,168.9-133,168.9
	c-26.6,0-51.6-14.4-60.2-30.7c0,0-14.3,56.8-17.3,67.7c-5.2,19-15.4,38-24.8,52.8c22.2,6.5,45.6,10.1,69.8,10.1
	c136.1,0,246.4-110.3,246.4-246.4C496.8,114.3,386.5,4,250.4,4z"/>
</svg>
