<?xml version="1.0" encoding="utf-8"?>
<!-- Generator: Adobe Illustrator 21.0.0, SVG Export Plug-In . SVG Version: 6.00 Build 0)  -->
<svg version="1.1" id="Layer_1" xmlns="http://www.w3.org/2000/svg" xmlns:xlink="http://www.w3.org/1999/xlink" x="0px" y="0px"
	 viewBox="0 0 500 500" style="enable-background:new 0 0 500 500;" xml:space="preserve">
<style type="text/css">
	.st0{fill:#21242D;}
</style>
<path id="Snapchat_1_" class="st0" d="M488.7,365c-66.5-10.9-96.4-79-97.6-81.9c-0.1-0.2-0.2-0.4-0.3-0.6
	c-3.4-6.9-4.2-12.6-2.3-16.9c3.6-8.5,17.5-12.9,26.8-15.8c2.7-0.8,5.2-1.6,7.3-2.5c9.1-3.6,15.6-7.4,19.8-11.8
	c5.1-5.2,6.1-10.3,6-13.6c-0.2-8-6.3-15-16-18.5c-3.3-1.4-7-2.1-10.8-2.1c-2.6,0-6.4,0.4-10.1,2c-7.8,3.6-14.7,5.6-20.7,5.9
	c-3.2-0.2-5.4-0.8-6.9-1.5c0.2-3.1,0.4-6.3,0.6-9.6l0.1-1.4c2.1-33.6,4.8-75.5-6.3-100.4c-7.6-17-17.8-31.7-30.4-43.5
	c-10.5-9.9-22.8-18-36.4-24C287.8,18.5,265.7,17,254.6,17h0c-0.4,0-0.8,0-1.2,0c-3.1,0-8.1,0.1-8.5,0.1c-11,0-33.1,1.6-56.8,12
	c-13.6,6-25.8,14-36.3,24c-12.5,11.8-22.7,26.5-30.3,43.4c-11.1,24.8-8.5,66.7-6.4,100.3l0,0.1c0.2,3.6,0.5,7.4,0.7,11
	c-1.6,0.7-4.3,1.5-8.2,1.5c-6.3,0-13.7-2-22.1-5.9c-2.5-1.2-5.3-1.7-8.4-1.7c-5,0-10.3,1.5-14.9,4.2c-5.8,3.4-9.5,8.2-10.5,13.4
	c-0.7,3.5-0.6,10.4,7.1,17.4c4.2,3.9,10.5,7.4,18.5,10.6c2.1,0.8,4.6,1.6,7.3,2.5c9.2,2.9,23.1,7.3,26.8,15.9c1.8,4.3,1,10-2.3,16.9
	c-0.1,0.2-0.2,0.4-0.3,0.6c-0.8,2-8.8,19.9-25,38.7c-9.2,10.7-19.4,19.7-30.2,26.7C40.3,357,26,362.5,11,365
	c-5.9,1-10.1,6.2-9.7,12.1c0.1,1.7,0.5,3.4,1.2,5.1c0,0,0,0,0,0c2.4,5.5,7.9,10.2,16.8,14.4c10.9,5.1,27.3,9.3,48.6,12.7
	c1.1,2,2.2,7.2,3,10.7c0.8,3.7,1.7,7.6,2.9,11.7c1.3,4.4,4.7,9.7,13.3,9.7c3.3,0,7.1-0.7,11.4-1.6c6.4-1.3,15.2-3,26.1-3
	c6.1,0,12.3,0.5,18.7,1.6c12.2,2,22.7,9.4,34.8,18c17.8,12.5,37.9,26.7,68.7,26.7c0.8,0,1.7,0,2.5-0.1c1,0,2.3,0.1,3.6,0.1
	c30.8,0,50.9-14.2,68.7-26.7l0,0c12.2-8.6,22.6-15.9,34.8-18c6.3-1,12.6-1.6,18.7-1.6c10.4,0,18.7,1.3,26.1,2.8
	c4.8,0.9,8.6,1.4,11.4,1.4l0.3,0h0.3c6.3,0,11-3.5,12.8-9.5c1.2-4,2-7.7,2.9-11.5c0.7-3.3,1.9-8.6,3-10.6
	c21.3-3.3,37.7-7.6,48.6-12.7c8.9-4.1,14.4-8.8,16.8-14.3c0.7-1.7,1.1-3.4,1.2-5.1C498.8,371.2,494.6,365.9,488.7,365z"/>
</svg>
