<?xml version="1.0" encoding="utf-8"?>
<!-- Generator: Adobe Illustrator 21.0.0, SVG Export Plug-In . SVG Version: 6.00 Build 0)  -->
<svg version="1.1" id="Layer_1" xmlns="http://www.w3.org/2000/svg" xmlns:xlink="http://www.w3.org/1999/xlink" x="0px" y="0px"
	 viewBox="0 0 500 500" style="enable-background:new 0 0 500 500;" xml:space="preserve">
<style type="text/css">
	.st0{fill:#21242D;}
</style>
<g>
	<path class="st0" d="M421.1,231.4c-10.7,0-20.8,2-30.2,6.1c-2-23.6-9.3-45.2-22-64.8c-12.6-19.6-29.2-35-49.7-46.4
		c-20.5-11.3-42.6-17-66.3-17c-10.2,0-20.6,1.3-30.9,3.8c-4.8,1.6-7.2,6.4-7.2,14.6v256.7c0,0.9,0.3,2,1,3.3
		c0.7,1.3,1.7,2.1,3.1,2.6l202.4,0.2c21.6,0,40.1-7.8,55.5-23.4c15.4-15.6,23.2-34.4,23.2-56.4c0-21.9-7.7-40.6-23.2-56.2
		C461.4,239.1,442.8,231.4,421.1,231.4z"/>
	<path class="st0" d="M17,254.2c-4.7,0-8.6,1.7-12,5.1c-3.3,3.4-5,7.5-5,12.4v68.4c0,6.3,2.2,11,6.7,14.3c4.5,3.2,9.3,4.4,14.4,3.4
		c4.8-0.9,8.2-2.7,10.1-5.2c1.9-2.5,2.9-6.7,2.9-12.5v-68.4c0-4.9-1.7-9-5-12.4C25.9,255.9,21.8,254.2,17,254.2z"/>
	<path class="st0" d="M70.5,192.7c-4.7,0-8.6,1.7-12,5.1c-3.3,3.4-5,7.4-5,12.2v159.5c0,4.6,1.6,8,4.8,10.3
		c3.2,2.3,7.3,3.4,12.2,3.4c5.1,0,9.3-1.1,12.4-3.4c3.2-2.3,4.8-5.7,4.8-10.3V209.9c0-4.7-1.7-8.8-5-12.2
		C79.4,194.4,75.3,192.7,70.5,192.7z"/>
	<path class="st0" d="M124.2,213.7c-4.8,0-8.9,1.7-12.3,5.2c-3.4,3.5-5.1,7.6-5.1,12.5v145.6h0c0,4.6,1.6,8,4.9,10.3
		c3.3,2.3,7.4,3.4,12.6,3.4c5,0,9-1.1,12.2-3.4c3.2-2.3,4.8-5.7,4.8-10.3V231.4c0-4.9-1.7-9-5-12.5
		C132.9,215.4,128.9,213.7,124.2,213.7z"/>
	<path class="st0" d="M182.9,119.3c-5.1-1.3-10.2,0.2-15.1,4.5c-5,4.2-7.4,10.2-7.4,17.9v235.9h0c0,8.7,5.7,13,17.2,13
		c11.5,0,17.2-4.3,17.2-13V141.7C194.7,128.5,190.8,121,182.9,119.3z"/>
</g>
</svg>
