<?xml version="1.0" encoding="utf-8"?>
<!-- Generator: Adobe Illustrator 21.0.0, SVG Export Plug-In . SVG Version: 6.00 Build 0)  -->
<svg version="1.1" id="Layer_1" xmlns="http://www.w3.org/2000/svg" xmlns:xlink="http://www.w3.org/1999/xlink" x="0px" y="0px"
	 viewBox="0 0 500 500" style="enable-background:new 0 0 500 500;" xml:space="preserve">
<style type="text/css">
	.st0{fill:#21242D;}
</style>
<path class="st0" d="M250.3,0C112.8,0,0.3,112.5,0.3,250s112.5,250,250,250c137.5,0,250-112.5,250-250S389.1,0,250.3,0z
	 M365.3,361.2c-5,7.5-13.8,10-21.2,5c-58.7-36.2-132.5-43.7-220-23.7c-8.8,2.5-16.2-3.8-18.7-11.2c-2.5-8.8,3.7-16.2,11.2-18.8
	c95-21.2,177.5-12.5,242.5,27.5C367.8,343.8,369.1,353.8,365.3,361.2z M395.3,292.5c-6.3,8.8-17.5,12.5-26.2,6.2
	c-67.5-41.3-170-53.8-248.8-28.8c-10,2.5-21.3-2.5-23.8-12.5c-2.5-10,2.5-21.2,12.5-23.7c91.2-27.5,203.8-13.8,281.2,33.8
	C397.8,271.2,401.6,283.8,395.3,292.5z M430.3,216.2c-6.2,8.8-21.2,12.5-32.5,6.2c-80-47.5-213.7-52.5-290-28.8
	c-12.5,3.8-25-3.8-28.8-15c-3.8-12.5,3.8-25,15-28.7c88.8-26.2,235-21.2,327.5,33.8C432.8,190,436.6,205,430.3,216.2z"/>
</svg>
