<?xml version="1.0" encoding="utf-8"?>
<!-- Generator: Adobe Illustrator 21.0.0, SVG Export Plug-In . SVG Version: 6.00 Build 0)  -->
<svg version="1.1" id="Layer_1" xmlns="http://www.w3.org/2000/svg" xmlns:xlink="http://www.w3.org/1999/xlink" x="0px" y="0px"
	 viewBox="0 0 500 500" style="enable-background:new 0 0 500 500;" xml:space="preserve">
<style type="text/css">
	.st0{fill:#21242D;}
</style>
<path id="Twitter_1_" class="st0" d="M486.8,49.1c-19.9,12.1-41.8,20.8-65.3,25.5c-18.7-20.5-45.4-33.2-75-33.2
	c-56.7,0-102.7,47.2-102.7,105.3c0,8.3,0.9,16.3,2.6,24c-85.4-4.4-161-46.3-211.7-110.1C26,76.2,21,94.4,21,113.6
	c0,36.5,18.1,68.8,45.7,87.7c-16.8-0.5-32.7-5.3-46.5-13.1v1.3c0,51,35.4,93.6,82.4,103.3c-8.6,2.5-17.7,3.7-27.1,3.7
	c-6.6,0-13.1-0.6-19.3-1.9c13.1,41.8,51,72.3,95.9,73.1c-35.1,28.3-79.5,45.1-127.6,45.1c-8.3,0-16.5-0.5-24.5-1.4
	c45.5,29.8,99.5,47.3,157.4,47.3c188.9,0,292.2-160.5,292.2-299.6c0-4.6-0.1-9.2-0.3-13.6c20.1-14.9,37.5-33.4,51.2-54.5
	c-18.4,8.4-38.2,14-59,16.6C462.9,94.4,479.1,73.7,486.8,49.1z"/>
</svg>
