<?xml version="1.0" encoding="utf-8"?>
<!-- Generator: Adobe Illustrator 21.0.0, SVG Export Plug-In . SVG Version: 6.00 Build 0)  -->
<svg version="1.1" id="Layer_1" xmlns="http://www.w3.org/2000/svg" xmlns:xlink="http://www.w3.org/1999/xlink" x="0px" y="0px"
	 viewBox="0 0 500 500" style="enable-background:new 0 0 500 500;" xml:space="preserve">
<style type="text/css">
	.st0{fill:#21242D;}
</style>
<g id="Vimeo_1_">
	<path class="st0" d="M427,36.6c-69.5-2.2-116.5,36.2-141.2,115.4c12.7-5.2,25-7.7,37-7.7c25.4,0,36.6,14,33.6,42.1
		c-1.5,17.1-12.7,41.8-33.6,74.4c-20.9,32.5-36.6,48.7-47.1,48.7c-13.5,0-25.8-25.1-37-75.4c-3.7-14.8-10.5-52.5-20.1-113.2
		c-9-56.2-33-82.5-71.8-78.7c-16.5,1.5-41.1,16.3-73.9,44.4c-24,21.4-48.2,42.9-72.9,64.3l23.5,30C46,165.2,59,157.4,62.7,157.4
		c17.2,0,33.2,26.6,48.2,79.9c13.5,48.7,26.9,97.6,40.4,146.4c20.1,53.3,44.8,79.8,73.9,79.8c47.1,0,104.7-43.6,172.6-130.9
		c65.7-83.5,99.7-149.3,101.9-197.4C502.8,70.9,478.5,38,427,36.6z"/>
</g>
</svg>
