<?xml version="1.0" encoding="utf-8"?>
<!-- Generator: Adobe Illustrator 21.0.0, SVG Export Plug-In . SVG Version: 6.00 Build 0)  -->
<svg version="1.1" id="Layer_1" xmlns="http://www.w3.org/2000/svg" xmlns:xlink="http://www.w3.org/1999/xlink" x="0px" y="0px"
	 viewBox="0 0 500 500" style="enable-background:new 0 0 500 500;" xml:space="preserve">
<style type="text/css">
	.st0{fill:#21242D;}
</style>
<g id="Youtube_1_">
	<path class="st0" d="M475.1,99.3c-19-20.1-40.3-20.2-50.1-21.3c-70-5.1-174.9-5.1-174.9-5.1h-0.2c0,0-105,0-174.9,5.1
		c-9.8,1.2-31.1,1.3-50.1,21.3c-15,15.3-19.9,50-19.9,50s-5,40.8-5,81.5V269c0,40.8,5,81.5,5,81.5s4.9,34.7,19.9,50
		c19,20.1,44,19.4,55.1,21.5c40,3.9,170,5.1,170,5.1s105.1-0.2,175-5.3c9.8-1.2,31.1-1.3,50.1-21.3c15-15.3,19.9-50,19.9-50
		s5-40.7,5-81.5v-38.2c0-40.7-5-81.5-5-81.5S490.1,114.6,475.1,99.3z M198.4,315.3l0-141.5l135.1,71L198.4,315.3z"/>
</g>
</svg>
