<?xml version="1.0" encoding="utf-8"?>
<!-- Generator: Adobe Illustrator 19.2.0, SVG Export Plug-In . SVG Version: 6.00 Build 0)  -->
<svg version="1.1" id="Layer_1" xmlns="http://www.w3.org/2000/svg" xmlns:xlink="http://www.w3.org/1999/xlink" x="0px" y="0px"
	 viewBox="0 0 349 475.1" style="enable-background:new 0 0 349 475.1;" xml:space="preserve">
<style type="text/css">
	.st0{opacity:0.3;fill:none;stroke:#000000;stroke-miterlimit:10;enable-background:new    ;}
	.st1{font-family:'ArialMT';}
	.st2{font-size:4.24px;}
	.st3{fill:none;stroke:#000000;stroke-width:1.5;stroke-miterlimit:10;}
	.st4{font-size:2.82px;}
	.st5{fill:#0000FF;}
	.st6{opacity:0.3;fill:none;stroke:#000000;stroke-width:0.5;stroke-miterlimit:10;enable-background:new    ;}
	.st7{fill:none;stroke:#000000;stroke-width:0.5;stroke-miterlimit:10;}
	.st8{fill:none;stroke:#000000;stroke-width:0.5;stroke-miterlimit:10;stroke-dasharray:3.91,3.91;}
	.st9{font-size:5px;}
	.st10{letter-spacing:1;}
</style>
<title>Asset 1</title>
<g id="Layer_2">
	<g id="Artwork">
		<g id="text">
			<line class="st0" x1="168" y1="300.7" x2="168" y2="472.5"/>
			<line class="st0" x1="168" y1="185.8" x2="168" y2="297.2"/>
			<line class="st0" x1="168" y1="130" x2="168" y2="182.3"/>
			<path class="st0" d="M168,130.5"/>
			<path class="st0" d="M168,126.4"/>
			<line class="st0" x1="168" y1="87.9" x2="168" y2="126.5"/>
			<line class="st0" x1="164.6" y1="300.7" x2="164.6" y2="475.1"/>
			<line class="st0" x1="164.6" y1="185.8" x2="164.6" y2="297.2"/>
			<line class="st0" x1="164.6" y1="130" x2="164.6" y2="182.3"/>
			<path class="st0" d="M164.6,130.2"/>
			<path class="st0" d="M164.6,126"/>
			<line class="st0" x1="164.6" y1="87.9" x2="164.6" y2="126.5"/>
			<line class="st0" x1="253.8" y1="182" x2="345.7" y2="182"/>
			<line class="st0" x1="167.7" y1="182" x2="251" y2="182"/>
			<path class="st0" d="M168,182"/>
			<line class="st0" x1="110.3" y1="182" x2="164.8" y2="182"/>
			<path class="st0" d="M110.8,182"/>
			<path class="st0" d="M107.2,182"/>
			<line class="st0" x1="7.1" y1="182" x2="107.7" y2="182"/>
			<line class="st0" x1="253.8" y1="186.2" x2="345.7" y2="186.2"/>
			<line class="st0" x1="167.7" y1="186.2" x2="251" y2="186.2"/>
			<path class="st0" d="M168.1,186.2"/>
			<path class="st0" d="M164.4,186.2"/>
			<line class="st0" x1="110.3" y1="186.2" x2="164.8" y2="186.2"/>
			<path class="st0" d="M110.8,186.2"/>
			<path class="st0" d="M107.1,186.2"/>
			<line class="st0" x1="7.1" y1="186.2" x2="107.7" y2="186.2"/>
			<line class="st0" x1="110.6" y1="300.6" x2="110.6" y2="471.5"/>
			<line class="st0" x1="110.6" y1="185.8" x2="110.6" y2="297.2"/>
			<path class="st0" d="M110.6,185.9"/>
			<path class="st0" d="M110.6,182.3"/>
			<line class="st0" x1="110.6" y1="130" x2="110.6" y2="182.3"/>
			<line class="st0" x1="110.6" y1="70.1" x2="110.6" y2="126.5"/>
			<line class="st0" x1="107.3" y1="300.6" x2="107.3" y2="472.5"/>
			<line class="st0" x1="107.3" y1="242.8" x2="107.3" y2="297.2"/>
			<line class="st0" x1="107.3" y1="185.8" x2="107.3" y2="239.3"/>
			<path class="st0" d="M107.3,186.2"/>
			<path class="st0" d="M107.3,181.9"/>
			<line class="st0" x1="107.3" y1="130" x2="107.3" y2="182.3"/>
			<line class="st0" x1="107.3" y1="68.1" x2="107.3" y2="126.5"/>
			<line class="st0" x1="167.6" y1="126.2" x2="345.6" y2="126.2"/>
			<path class="st0" d="M168.2,126.2"/>
			<path class="st0" d="M164.4,126.2"/>
			<line class="st0" x1="110.3" y1="126.2" x2="165" y2="126.2"/>
			<path class="st0" d="M110.7,126.2"/>
			<path class="st0" d="M107.3,126.2"/>
			<line class="st0" x1="7.1" y1="126.2" x2="107.7" y2="126.2"/>
			<path class="st0" d="M258.8,131.7"/>
			<line class="st0" x1="167.7" y1="130.3" x2="345.6" y2="130.3"/>
			<path class="st0" d="M168,130.3"/>
			<path class="st0" d="M164.5,130.3"/>
			<line class="st0" x1="110.3" y1="130.3" x2="165" y2="130.3"/>
			<path class="st0" d="M110.7,130.3"/>
			<line class="st0" x1="7.1" y1="130.3" x2="107.7" y2="130.3"/>
			<text transform="matrix(1 0 0 1 250.24 124.42)" class="st1 st2">HO</text>
			<text transform="matrix(1 0 0 1 258.1 124.42)" class="st1 st2">L</text>
			<text transform="matrix(1 0 0 1 261.01 124.42)" class="st1 st2">L</text>
			<text transform="matrix(1 0 0 1 263.13 124.42)" class="st1 st2">Y</text>
			<text transform="matrix(1 0 0 1 266.31 124.42)" class="st1 st2">W</text>
			<text transform="matrix(1 0 0 1 270.81 124.42)" class="st1 st2">OO</text>
			<text transform="matrix(1 0 0 1 278.76 124.42)" class="st1 st2">D </text>
			<text transform="matrix(1 0 0 1 283.96 124.42)" class="st1 st2">B</text>
			<text transform="matrix(1 0 0 1 288.02 124.42)" class="st1 st2">L</text>
			<text transform="matrix(1 0 0 1 290.15 124.42)" class="st1 st2">VD</text>
			<text transform="matrix(1 0 0 1 282.79 180.69)" class="st1 st2">S</text>
			<text transform="matrix(1 0 0 1 286.32 180.69)" class="st1 st2">U</text>
			<text transform="matrix(1 0 0 1 290.29 180.69)" class="st1 st2">NS</text>
			<text transform="matrix(1 0 0 1 297.7 180.69)" class="st1 st2">ET </text>
			<text transform="matrix(1 0 0 1 305.74 180.69)" class="st1 st2">B</text>
			<text transform="matrix(1 0 0 1 309.8 180.69)" class="st1 st2">L</text>
			<text transform="matrix(1 0 0 1 311.92 180.69)" class="st1 st2">VD</text>
			<path d="M105.7,271v0.3l-3-1.4v-0.3l3-1.4v0.3l-2.7,1.2L105.7,271z"/>
			<path d="M105.7,271.6v0.3h-3v-0.3H105.7z"/>
			<path d="M105.7,275.9h-3v-0.3l2.6-2.6h-2.6v-0.3h3v0.3l-2.6,2.6h2.6V275.9z"/>
			<path d="M105.7,276.7v2.9h-0.2V277h-1v2.4h-0.2V277H103v2.7h-0.2v-3L105.7,276.7z"/>
			<path d="M103.6,281.9c-0.3,0.1-0.6,0.4-0.6,0.8c0,0.2,0,0.3,0,0.5c0,0.7,0.3,1.2,0.7,1.2s0.5-0.4,0.6-1c0-0.2,0-0.4,0.1-0.5
				c0-0.2,0.1-0.4,0.1-0.6c0.1-0.2,0.3-0.4,0.6-0.4c0.4,0,0.9,0.4,0.9,1.4c0,0.5-0.2,1.1-0.6,1.4l-0.2-0.3c0.4-0.3,0.5-0.7,0.5-1.2
				c0-0.6-0.2-1-0.6-1s-0.3,0.2-0.4,0.4s-0.1,0.9-0.2,1c0,0.2-0.1,0.5-0.2,0.7c-0.1,0.3-0.3,0.4-0.6,0.4c-0.2,0-0.3,0-0.4-0.1
				c-0.4-0.3-0.6-0.8-0.5-1.3c0-0.4,0-0.7,0.2-1c0.1-0.3,0.4-0.5,0.6-0.6L103.6,281.9z"/>
			<path d="M105.7,284.9v2.9h-0.2v-1.3h-2.7v-0.3h2.7v-1.3L105.7,284.9z"/>
			<path d="M161.7,307.9h-3v-0.3l2.6-2.6h-2.6v-0.3h3v0.3l-2.6,2.6h2.6L161.7,307.9z"/>
			<path d="M159.3,313c-0.1-0.1-0.2-0.2-0.3-0.3c-0.2-0.3-0.4-0.7-0.4-1.1c-0.1-0.9,0.6-1.6,1.4-1.7c0,0,0.1,0,0.1,0
				c0.9,0,1.6,0.7,1.6,1.6c0,0,0,0.1,0,0.1c0,0.4-0.1,0.8-0.3,1.1c-0.1,0.2-0.3,0.3-0.5,0.4l-0.2-0.3c0.1-0.1,0.2-0.1,0.3-0.2
				c0.2-0.3,0.4-0.6,0.4-1c0.1-0.7-0.5-1.4-1.2-1.4c-0.7-0.1-1.4,0.5-1.4,1.2c0,0.1,0,0.2,0,0.2c0,0.4,0.1,0.7,0.4,1
				c0.2,0.2,0.5,0.4,0.8,0.4v-1.6h0.2v1.9h-1.6V313H159.3z"/>
			<path d="M160.2,317.4c-0.9,0-1.6-0.8-1.6-1.7c0,0,0-0.1,0-0.1c-0.1-0.9,0.6-1.7,1.5-1.7c0,0,0.1,0,0.1,0c1,0.1,1.7,1,1.5,2
				C161.6,316.7,161,317.3,160.2,317.4z M160.2,314.2c-0.8,0.1-1.4,0.8-1.3,1.6c0.1,0.7,0.6,1.3,1.3,1.3c0.4,0,0.8-0.2,1.1-0.5
				c0.2-0.3,0.3-0.6,0.2-1C161.5,314.8,160.9,314.2,160.2,314.2C160.2,314.2,160.2,314.2,160.2,314.2L160.2,314.2z"/>
			<path d="M161.7,317.8l-2.4,0.8l-0.3,0.1c0.4,0.1,0.5,0.2,0.8,0.3l1.9,0.6v0.3l-2.3,0.8l-0.4,0.1l0.5,0.1l2.2,0.7v0.3l-3-1v-0.4
				l2.4-0.8c0.1,0,0.2-0.1,0.3-0.1l-0.3-0.1l-2.4-0.8v-0.3l3-1V317.8z"/>
			<path d="M161.7,322.3v2.9h-0.2v-2.6h-1v2.4h-0.2v-2.4H159v2.7h-0.2v-3H161.7z"/>
			<path d="M161.7,328.1c0,0.2,0,0.5-0.1,0.7c-0.1,0.2-0.4,0.4-0.7,0.4c-0.2,0-0.5-0.1-0.6-0.3c-0.1-0.2-0.2-0.5-0.2-0.8l-1.3,1.2
				v-0.4l1.3-1.2v-1.4h-1.4V326h3L161.7,328.1z M160.3,326.3v1.6c0,0.3,0,0.5,0.2,0.8c0.1,0.1,0.3,0.1,0.4,0.1
				c0.2,0,0.3-0.1,0.4-0.2c0.1-0.2,0.1-0.3,0.1-0.5v-1.8L160.3,326.3z"/>
			<path d="M159.6,331.4c-0.3,0.1-0.6,0.4-0.6,0.8c0,0.2,0,0.3,0,0.5c0,0.7,0.3,1.2,0.7,1.2s0.5-0.4,0.6-1c0-0.2,0-0.4,0.1-0.5
				c0-0.2,0.1-0.4,0.1-0.6c0.1-0.2,0.3-0.4,0.6-0.4c0.4,0,0.9,0.4,0.9,1.4c0,0.5-0.2,1.1-0.6,1.4l-0.1-0.3c0.4-0.3,0.5-0.7,0.5-1.2
				c0-0.6-0.2-1-0.6-1s-0.4,0.2-0.4,0.4s-0.1,0.9-0.1,1c0,0.2-0.1,0.5-0.2,0.7c-0.1,0.3-0.3,0.4-0.6,0.4c-0.2,0-0.3,0-0.4-0.1
				c-0.4-0.3-0.6-0.8-0.5-1.3c0-0.4,0-0.7,0.2-1c0.1-0.3,0.4-0.5,0.6-0.6L159.6,331.4z"/>
			<path d="M161.7,334.3v2.9h-0.2V336h-2.7v-0.3h2.7v-1.3L161.7,334.3z"/>
			<line class="st0" x1="110.4" y1="238.9" x2="164.6" y2="238.9"/>
			<path class="st0" d="M110.8,238.9"/>
			<path class="st0" d="M107.1,238.9"/>
			<line class="st0" x1="7.7" y1="238.9" x2="107.1" y2="238.9"/>
			<path class="st0" d="M164.6,243.2"/>
			<line class="st0" x1="7.7" y1="243.2" x2="107.5" y2="243.2"/>
			<text transform="matrix(1 0 0 1 29.88 237.02)" class="st1 st2">FO</text>
			<text transform="matrix(1 0 0 1 37.12 237.02)" class="st1 st2">U</text>
			<text transform="matrix(1 0 0 1 41.09 237.02)" class="st1 st2">N</text>
			<text transform="matrix(1 0 0 1 44.89 237.02)" class="st1 st2">T</text>
			<text transform="matrix(1 0 0 1 47.28 237.02)" class="st1 st2">A</text>
			<text transform="matrix(1 0 0 1 50.63 237.02)" class="st1 st2">I</text>
			<text transform="matrix(1 0 0 1 51.78 237.02)" class="st1 st2">N </text>
			<text transform="matrix(1 0 0 1 57.16 237.02)" class="st1 st2">A</text>
			<text transform="matrix(1 0 0 1 60.17 237.02)" class="st1 st2">VE</text>
			<line class="st0" x1="253.8" y1="296.9" x2="346.3" y2="296.9"/>
			<path class="st0" d="M254.1,296.9"/>
			<line class="st0" x1="167.6" y1="296.9" x2="251" y2="296.9"/>
			<line class="st0" x1="110.3" y1="296.9" x2="165" y2="296.9"/>
			<line class="st0" x1="6.4" y1="296.9" x2="107.7" y2="296.9"/>
			<path class="st0" d="M258.1,302.4"/>
			<line class="st0" x1="253.8" y1="301" x2="345.6" y2="301"/>
			<line class="st0" x1="167.7" y1="301" x2="251" y2="301"/>
			<line class="st0" x1="110.3" y1="301" x2="165" y2="301"/>
			<line class="st0" x1="7" y1="301" x2="107.7" y2="301"/>
			<text transform="matrix(1 0 0 1 197.04 294.64)" class="st1 st2">S</text>
			<text transform="matrix(1 0 0 1 200.39 294.64)" class="st1 st2">AN</text>
			<text transform="matrix(1 0 0 1 207.55 294.64)" class="st1 st2">T</text>
			<text transform="matrix(1 0 0 1 209.93 294.64)" class="st1 st2">A </text>
			<text transform="matrix(1 0 0 1 214.88 294.64)" class="st1 st2">MO</text>
			<text transform="matrix(1 0 0 1 222.91 294.64)" class="st1 st2">N</text>
			<text transform="matrix(1 0 0 1 226.89 294.64)" class="st1 st2">I</text>
			<text transform="matrix(1 0 0 1 227.94 294.64)" class="st1 st2">C</text>
			<text transform="matrix(1 0 0 1 231.3 294.64)" class="st1 st2">A </text>
			<text transform="matrix(1 0 0 1 236.24 294.64)" class="st1 st2">B</text>
			<text transform="matrix(1 0 0 1 240.31 294.64)" class="st1 st2">L</text>
			<text transform="matrix(1 0 0 1 242.43 294.64)" class="st1 st2">VD</text>
			<line class="st0" x1="254.1" y1="300.6" x2="254.1" y2="475.1"/>
			<line class="st0" x1="254.1" y1="185.8" x2="254.1" y2="297.2"/>
			<line class="st0" x1="254.1" y1="163.7" x2="254.1" y2="182.3"/>
			<line class="st0" x1="250.6" y1="300.6" x2="250.6" y2="475.1"/>
			<line class="st0" x1="250.6" y1="185.8" x2="250.6" y2="297.2"/>
			<path class="st0" d="M250.6,186.3"/>
			<path class="st0" d="M250.6,181.8"/>
			<line class="st0" x1="250.6" y1="158.1" x2="250.6" y2="182.3"/>
			<path class="st3" d="M11.4,0.6c0,0,109.4,94.2,162.8,87.3"/>
			<path class="st3" d="M284.3,205.7c9.4,22,55.6,55.8,61.3,56.3"/>
			<text transform="matrix(1 0 0 1 211.82 90.54)" class="st1 st2">101</text>
			<text transform="matrix(1 0 0 1 246.01 146.76)" class="st1 st2">101</text>
			<text transform="matrix(1 0 0 1 290.92 233.43)" class="st1 st2">101</text>
			<text transform="matrix(1 0 0 1 152.12 169.87)" class="st1 st4">6162</text>
			<path class="st5" d="M159.5,176c0,0.3,0,0.5-0.1,0.8c-0.1,0.4-0.3,0.8-0.5,1.2c-0.1,0.3-0.3,0.5-0.6,0.7
				c-0.2,0.2-0.4,0.2-0.7,0.3c-0.3,0-0.6-0.1-0.8-0.3c-0.2-0.2-0.4-0.4-0.5-0.7c-0.1-0.2-0.2-0.4-0.4-0.6c-0.4-0.8-1.2-1.3-2-1.5
				c-0.2,0-0.4-0.1-0.5-0.2c-0.4-0.1-0.6-0.6-0.5-1c0.1-0.3,0.2-0.5,0.4-0.6c0.2-0.1,0.3-0.3,0.5-0.5l1.4-1.2
				c0.2-0.2,0.4-0.4,0.6-0.6c0.2-0.2,0.5-0.3,0.7-0.4c0.2-0.1,0.5-0.1,0.7,0c0.3,0.1,0.6,0.3,0.7,0.5c0.1,0.3,0.2,0.6,0.3,0.9
				l0.2,0.9c0.1,0.4,0.3,0.7,0.5,1.1c0.1,0.2,0.3,0.5,0.3,0.8c0,0.1,0,0.1,0,0.2C159.5,175.9,159.5,176,159.5,176z"/>
			<line class="st6" x1="210.1" y1="186.2" x2="210.1" y2="296.9"/>
			<line class="st6" x1="195.8" y1="186.2" x2="195.8" y2="296.9"/>
			<line class="st6" x1="224" y1="186.8" x2="224" y2="295.9"/>
			<line class="st6" x1="168" y1="241.4" x2="224" y2="241.4"/>
			<line class="st6" x1="171.5" y1="269.8" x2="224" y2="269.8"/>
			<path class="st6" d="M224,250.8h63.5"/>
			<line class="st6" x1="224" y1="266.4" x2="284.3" y2="266.4"/>
			<line class="st6" x1="224" y1="282.1" x2="281.4" y2="282.1"/>
			<line class="st6" x1="181.2" y1="186.8" x2="181.2" y2="224.9"/>
			<line class="st6" x1="110.6" y1="227.1" x2="164.2" y2="227.1"/>
			<polyline class="st6" points="148.6,186.2 148.6,217.5 139.4,236.6 139.4,238.9 139.4,252.6 			"/>
			<line class="st6" x1="110.8" y1="213.4" x2="164.6" y2="213.4"/>
			<path class="st6" d="M110.8,213.4"/>
			<path class="st6" d="M107.2,213.4"/>
			<line class="st6" x1="73.5" y1="213.4" x2="107.2" y2="213.4"/>
			<path class="st6" d="M110.6,198.8c0.5-0.1,37.9,0,37.9,0"/>
			<line class="st6" x1="73.5" y1="227.1" x2="107.3" y2="227.1"/>
			<line class="st6" x1="152.5" y1="243.9" x2="152.5" y2="257.9"/>
			<line class="st6" x1="181.9" y1="241.4" x2="181.9" y2="279.7"/>
			<line class="st6" x1="254.2" y1="235.3" x2="289.5" y2="235.3"/>
			<line class="st6" x1="148.6" y1="182" x2="148.6" y2="130.3"/>
			<path class="st6" d="M111.8,155.1c0.5-0.4,52.5,0,52.5,0"/>
			<line class="st6" x1="129.6" y1="131.9" x2="129.6" y2="182"/>
			<polyline class="st6" points="223.1,130.3 223.1,154.3 223.1,182 			"/>
			<line class="st6" x1="249.2" y1="155" x2="223.1" y2="155"/>
			<path class="st6" d="M223,163.7c0.8,0.4,27.6,0,27.6,0"/>
			<polyline class="st6" points="168,157.6 189.7,157.6 189.7,182 			"/>
			<line class="st6" x1="168" y1="143.8" x2="243" y2="143.8"/>
			<path class="st6" d="M147.5,107.5h17.1"/>
			<line class="st6" x1="158.7" y1="115.5" x2="158.7" y2="107.5"/>
			<line class="st6" x1="223.1" y1="126.2" x2="223.1" y2="107.5"/>
			<path class="st6" d="M224,219.4c0-1,26.6,0,26.6,0"/>
			<line class="st6" x1="168" y1="104.6" x2="221.9" y2="104.6"/>
			<line class="st7" x1="161.7" y1="160.6" x2="162.5" y2="158.7"/>
			<line class="st8" x1="164" y1="155.1" x2="208.6" y2="48.7"/>
			<line class="st7" x1="209.3" y1="46.9" x2="210.1" y2="45"/>
		</g>
		<text transform="matrix(1 0 0 1 185.48 9.21)" class="st1 st9 st10">300 </text>
		<text transform="matrix(1 0 0 1 202.69 9.21)" class="st1 st9 st10">S</text>
		<text transform="matrix(1 0 0 1 207.95 9.21)" class="st1 st9 st10">U</text>
		<text transform="matrix(1 0 0 1 213.73 9.21)" class="st1 st9 st10">NS</text>
		<text transform="matrix(1 0 0 1 224.67 9.21)" class="st1 st9 st10">ET </text>
		<text transform="matrix(1 0 0 1 237.45 9.21)" class="st1 st9 st10">R</text>
		<text transform="matrix(1 0 0 1 243.13 9.21)" class="st1 st9">D</text>
		<text transform="matrix(1 0 0 1 183.07 19.2)" class="st1 st9">L</text>
		<text transform="matrix(1 0 0 1 187.3 19.2)" class="st1 st9 st10">O</text>
		<text transform="matrix(1 0 0 1 193.09 19.2)" class="st1 st9 st10">S A</text>
		<text transform="matrix(1 0 0 1 206.28 19.2)" class="st1 st9 st10">N</text>
		<text transform="matrix(1 0 0 1 211.97 19.2)" class="st1 st9 st10">GE</text>
		<text transform="matrix(1 0 0 1 223.22 19.2)" class="st1 st9 st10">L</text>
		<text transform="matrix(1 0 0 1 227.76 19.2)" class="st1 st9 st10">E</text>
		<text transform="matrix(1 0 0 1 233.13 19.2)" class="st1 st9 st10">S, </text>
		<text transform="matrix(1 0 0 1 243.72 19.2)" class="st1 st9 st10">C</text>
		<text transform="matrix(1 0 0 1 248.78 19.2)" class="st1 st9">A</text>
		<text transform="matrix(1 0 0 1 194.79 27.66)" class="st1 st9 st10">9</text>
		<text transform="matrix(1 0 0 1 199.64 27.66)" class="st1 st9 st10">0001 </text>
		<text transform="matrix(1 0 0 1 221.59 27.66)" class="st1 st9 st10">U</text>
		<text transform="matrix(1 0 0 1 227.27 27.66)" class="st1 st9 st10">S</text>
		<text transform="matrix(1 0 0 1 232.33 27.66)" class="st1 st9">A</text>
	</g>
</g>
</svg>
