<?xml version="1.0" encoding="utf-8"?>
<!-- Generator: Adobe Illustrator 21.0.2, SVG Export Plug-In . SVG Version: 6.00 Build 0)  -->
<svg version="1.1" id="Layer_1" xmlns="http://www.w3.org/2000/svg" xmlns:xlink="http://www.w3.org/1999/xlink" x="0px" y="0px"
	 viewBox="0 0 134.4 114.8" style="enable-background:new 0 0 134.4 114.8;" xml:space="preserve">
<style type="text/css">
	.st0{fill:#452D81;}
	.st1{fill:#21409A;}
	.st2{fill:#265B2D;}
	.st3{fill:#E0BA27;}
	.st4{fill:#F49C1E;}
	.st5{fill:#F26A2E;}
	.st6{fill:#D62027;}
</style>
<title>Artboard 1</title>
<path class="st0" d="M7.1,46.8c7.6-7,15.5-13.6,23.1-20.5c6.9-6.2,13.7-14.1,23.1-16.2c5.4-1.2,11.3-0.4,15.3,3.7
	c4,4.1,5.8,10.3,7.3,15.7c2.3,8.3,4.1,16.5,8.1,24.2c2.3,4.4,5,8.8,6.2,13.6c1.5,5.7,0.6,11.4-1.2,17c-2.8,8.9-6.4,19.7-13.9,25.6
	c-10.3,8.1-20.7,2-26.5-7.8c-4.1-6.9-7.1-14.2-12.9-19.9c-6-5.9-13.3-9.5-21.4-11.6c-5.6-1.5-11.6-3.4-12.9-9.8
	C0.2,55.4,3,50.1,7.1,46.8c0.5-0.4-0.2-1.1-0.7-0.7c-5.2,4.2-8.4,12.1-4.8,18.4c1.6,2.8,4.4,4.5,7.3,5.6c5.5,2,11.1,2.9,16.3,5.7
	c4.9,2.7,9.3,6.2,12.8,10.6c4.2,5.2,6.6,11.4,10.1,17c4.1,6.6,10.8,12.8,19.2,11.3c9.2-1.6,14.6-9.9,18-17.9
	c3.9-9.1,8.6-19.6,5.9-29.7c-1.3-4.9-4-9.4-6.4-13.9c-2.8-5.7-5-11.7-6.4-17.9C76,26.4,73.8,13.6,64.2,9.7
	c-9.3-3.7-18.7,1.6-25.7,7.5C27.6,26.6,16.9,36.3,6.3,46C5.8,46.5,6.5,47.2,7.1,46.8L7.1,46.8z"/>
<path class="st1" d="M13.1,45c7.6-7,15.4-13.6,23.1-20.5c6.9-6.2,13.7-14.1,23.1-16.2C64.7,7.1,70.6,8,74.6,12
	c4,4.1,5.8,10.3,7.3,15.7c2.3,8.3,4.1,16.5,8.1,24.2c2.3,4.4,5,8.8,6.2,13.6c1.5,5.7,0.6,11.4-1.2,17c-2.8,8.9-6.4,19.7-13.9,25.6
	c-10.3,8.1-20.7,2-26.5-7.8c-4.1-6.9-7.1-14.2-12.9-19.9c-6-5.9-13.3-9.5-21.4-11.6C14.6,67.3,8.7,65.4,7.3,59
	C6.3,53.7,9,48.3,13.1,45c0.5-0.4-0.2-1.1-0.7-0.7C7.2,48.5,4,56.4,7.6,62.7c1.6,2.8,4.4,4.5,7.3,5.6c5.5,2,11.1,2.9,16.3,5.7
	c4.9,2.7,9.3,6.2,12.8,10.6c4.2,5.2,6.6,11.4,10.1,17c4.1,6.6,10.8,12.8,19.2,11.3c9.2-1.6,14.6-9.9,18-17.9
	c3.9-9.1,8.6-19.6,5.9-29.7c-1.3-4.9-4-9.4-6.4-13.9c-2.8-5.7-5-11.7-6.4-17.9C82.1,24.6,79.9,11.8,70.2,8
	C61,4.2,51.5,9.6,44.6,15.5c-10.9,9.3-21.7,19-32.2,28.8C11.9,44.7,12.6,45.4,13.1,45L13.1,45z"/>
<path class="st2" d="M20,43.5c7.6-7,15.4-13.6,23.1-20.5C50,16.8,56.9,9,66.2,6.8c5.4-1.2,11.3-0.4,15.3,3.7
	c4,4.1,5.8,10.3,7.3,15.7c2.3,8.3,4.1,16.5,8.1,24.2c2.3,4.4,5,8.8,6.2,13.6c1.5,5.7,0.6,11.4-1.2,17c-2.8,8.9-6.4,19.7-13.9,25.6
	c-10.3,8.1-20.7,2-26.5-7.8c-4.1-6.9-7.1-14.2-12.9-19.9c-6-5.9-13.3-9.5-21.4-11.6c-5.6-1.5-11.6-3.4-12.9-9.9
	C13.2,52.1,15.9,46.8,20,43.5c0.5-0.4-0.2-1.2-0.7-0.8c-5.2,4.2-8.4,12.1-4.8,18.4c1.6,2.8,4.4,4.5,7.3,5.6c5.5,2,11.1,2.9,16.3,5.7
	C43,75,47.4,78.6,50.9,83c4.2,5.2,6.6,11.4,10.1,17c4.1,6.6,10.8,12.8,19.2,11.3c9.2-1.6,14.6-9.9,18-17.9
	c3.9-9.1,8.6-19.6,5.9-29.7c-1.3-4.9-4-9.4-6.4-13.9c-2.8-5.7-5-11.7-6.4-17.9C89,23,86.8,10.2,77.2,6.4C67.9,2.7,58.4,8,51.5,13.9
	c-10.9,9.3-21.7,19-32.2,28.8C18.8,43.2,19.5,43.9,20,43.5L20,43.5z"/>
<path class="st3" d="M26.6,42.3c7.6-7,15.4-13.6,23.1-20.5c6.9-6.2,13.7-14.1,23.1-16.2c5.4-1.2,11.3-0.4,15.3,3.7
	c4,4.1,5.8,10.3,7.3,15.7c2.3,8.3,4.1,16.5,8.1,24.2c2.3,4.4,5,8.8,6.2,13.6c1.5,5.7,0.6,11.4-1.2,17c-2.8,8.9-6.4,19.7-13.9,25.6
	c-10.3,8.1-20.7,2-26.5-7.8c-4.1-6.9-7.1-14.2-12.9-19.9c-6-5.9-13.3-9.5-21.4-11.6c-5.6-1.5-11.6-3.4-12.9-9.8
	C19.7,51,22.5,45.7,26.6,42.3c0.5-0.4-0.2-1.1-0.7-0.7C20.6,45.8,17.5,53.8,21,60c1.6,2.8,4.4,4.5,7.3,5.6c5.5,2,11.1,2.9,16.3,5.7
	c4.9,2.6,9.3,6.2,12.8,10.5c4.2,5.2,6.6,11.4,10.1,17c4.1,6.6,10.8,12.8,19.2,11.3c9.2-1.6,14.6-9.9,18-17.9
	c3.9-9.1,8.6-19.6,5.9-29.7c-1.3-4.9-4-9.4-6.4-13.9c-2.8-5.7-4.9-11.7-6.4-17.8C95.6,22,93.4,9.2,83.8,5.3
	C74.5,1.6,65.1,7,58.1,12.9c-10.9,9.3-21.7,19-32.2,28.8C25.4,42.1,26.1,42.8,26.6,42.3L26.6,42.3z"/>
<path class="st4" d="M34.2,41.5c7.6-7,15.4-13.6,23.1-20.5C64.1,14.8,71,6.9,80.4,4.8c5.4-1.2,11.3-0.4,15.3,3.7
	c4,4.1,5.8,10.3,7.3,15.7c2.3,8.3,4.1,16.5,8.1,24.2c2.3,4.4,5,8.8,6.2,13.6c1.5,5.7,0.6,11.4-1.2,17c-2.8,8.9-6.4,19.7-13.9,25.6
	c-10.3,8.1-20.7,2-26.5-7.8c-4.1-6.9-7.1-14.2-12.9-19.9c-6-5.9-13.3-9.5-21.4-11.6c-5.6-1.5-11.6-3.4-12.9-9.8
	C27.3,50.1,30.1,44.8,34.2,41.5c0.5-0.4-0.2-1.1-0.7-0.7c-5.2,4.2-8.4,12.1-4.8,18.4c1.6,2.8,4.4,4.5,7.3,5.6
	c5.5,2,11.1,2.9,16.3,5.7c4.9,2.7,9.3,6.2,12.8,10.6c4.2,5.2,6.6,11.4,10.1,17c4.1,6.6,10.8,12.8,19.2,11.3
	c9.2-1.6,14.6-9.9,18-17.9c3.9-9.1,8.6-19.6,5.9-29.7c-1.3-4.9-4-9.4-6.4-13.9c-2.8-5.7-5-11.7-6.4-17.9
	c-2.3-8.8-4.5-21.6-14.1-25.4C82,0.7,72.6,6.1,65.6,12C54.7,21.3,44,31,33.4,40.7C32.9,41.2,33.6,41.9,34.2,41.5L34.2,41.5z"/>
<path class="st5" d="M42.2,39.9c7.6-7,15.4-13.6,23.1-20.5C72.2,13.2,79,5.3,88.4,3.2c5.4-1.2,11.3-0.4,15.3,3.7
	c4,4.1,5.8,10.3,7.3,15.7c2.3,8.3,4.1,16.5,8.1,24.2c2.3,4.4,5,8.8,6.2,13.6c1.5,5.7,0.6,11.4-1.2,17c-2.8,8.9-6.4,19.7-13.9,25.6
	c-10.3,8.1-20.7,2-26.5-7.8c-4.1-6.9-7.1-14.2-12.9-19.9c-6-5.9-13.3-9.5-21.4-11.6c-5.6-1.5-11.6-3.4-12.9-9.8
	C35.4,48.5,38.1,43.2,42.2,39.9c0.5-0.4-0.2-1.1-0.7-0.7c-5.2,4.2-8.4,12.1-4.8,18.4c1.6,2.8,4.4,4.5,7.3,5.6
	c5.5,2,11.1,2.9,16.3,5.7c4.9,2.7,9.3,6.2,12.8,10.6c4.2,5.2,6.6,11.4,10.1,17c4.1,6.6,10.8,12.8,19.2,11.3
	c9.2-1.6,14.6-9.9,18-17.9c3.9-9.1,8.6-19.6,5.9-29.7c-1.3-4.9-4-9.4-6.4-13.9c-2.8-5.7-5-11.7-6.4-17.9
	c-2.3-8.8-4.5-21.6-14.1-25.4c-9.3-3.7-18.7,1.6-25.7,7.5c-10.9,9.3-21.7,19-32.2,28.8C41,39.6,41.7,40.3,42.2,39.9L42.2,39.9z"/>
<path class="st6" d="M49.6,38.3c7.6-7,15.5-13.6,23.1-20.5c6.9-6.2,13.7-14.1,23.1-16.2c5.4-1.2,11.3-0.4,15.3,3.7
	s5.8,10.3,7.3,15.7c2.3,8.3,4.1,16.5,8.1,24.2c2.3,4.4,5,8.8,6.2,13.6c1.5,5.7,0.6,11.4-1.2,17c-2.8,8.9-6.4,19.7-13.9,25.6
	c-10.3,8.1-20.7,2-26.5-7.8c-4.1-6.9-7.1-14.2-12.9-19.9c-6-5.9-13.3-9.5-21.4-11.6c-5.6-1.5-11.6-3.4-12.9-9.8
	C42.7,47,45.5,41.6,49.6,38.3c0.5-0.4-0.2-1.1-0.7-0.7C43.6,41.8,40.5,49.7,44,56c1.6,2.8,4.4,4.5,7.3,5.6c5.5,2,11.1,2.9,16.3,5.7
	c4.9,2.6,9.3,6.2,12.8,10.6c4.2,5.2,6.6,11.4,10.1,17c4.1,6.6,10.8,12.8,19.2,11.3c9.2-1.6,14.6-9.9,18-17.9
	c3.9-9.1,8.6-19.6,5.9-29.7c-1.3-4.9-4-9.4-6.4-13.9c-2.8-5.7-5-11.7-6.4-17.9c-2.3-8.8-4.5-21.6-14.1-25.4
	C97.5-2.5,88,2.9,81.1,8.8c-10.9,9.3-21.7,19-32.2,28.8C48.4,38,49.1,38.7,49.6,38.3L49.6,38.3z"/>
</svg>
